<svg width="12" height="11" viewBox="0 0 12 11" fill="none" xmlns="http://www.w3.org/2000/svg">
<path d="M1.04344 5.9C0.983438 5.9 0.943438 5.8 0.923438 5.6C0.903438 5.4 0.903438 5.21 0.923438 5.03C0.943438 4.83 0.973438 4.73 1.01344 4.73H10.9434C11.0034 4.73 11.0434 4.83 11.0634 5.03C11.0834 5.21 11.0834 5.4 11.0634 5.6C11.0434 5.8 11.0034 5.9 10.9434 5.9H1.04344ZM6.59344 10.25C6.59344 10.31 6.49344 10.35 6.29344 10.37C6.09344 10.39 5.89344 10.4 5.69344 10.4C5.49344 10.38 5.39344 10.35 5.39344 10.31V0.38C5.39344 0.32 5.49344 0.279999 5.69344 0.26C5.89344 0.239999 6.09344 0.239999 6.29344 0.26C6.49344 0.279999 6.59344 0.32 6.59344 0.38V10.25Z" fill="white"/>
</svg>
